# Blender v2.76 (sub 0) OBJ File: ''
# www.blender.org
mtllib parkzone.mtl
o ParkZone_logo_noFont_(1)
v 5.302547 11.268917 1.305231
v 6.105282 9.364647 1.305231
v 5.627742 9.183002 1.305231
v -1.514828 0.754292 1.305230
v -1.526577 0.754292 1.305230
v -1.538278 0.812887 1.305230
v 7.385557 4.228901 1.305230
v 6.749812 6.165426 1.305231
v 7.452937 6.314841 1.305231
v -0.301942 5.611715 1.305231
v 2.141412 5.974996 1.305231
v 2.000787 3.645896 1.305230
v 8.123837 4.390037 1.305230
v 7.860163 6.432026 1.305231
v 4.075007 10.744516 1.305231
v 4.435360 10.920317 1.305231
v 5.153132 8.957417 1.305231
v 6.459773 9.467181 1.305231
v 5.812313 11.415417 1.305231
v 7.069147 9.604877 1.305231
v 6.433407 11.550167 1.305231
v 6.556452 11.561916 1.305231
v 9.799623 8.119526 1.305231
v 11.507622 8.597067 1.305231
v 11.639473 7.967181 1.305231
v 9.776173 7.715231 1.305231
v 9.817173 7.905662 1.305231
v 11.194172 9.279681 1.305231
v 11.334772 9.027731 1.305231
v 9.697073 8.494526 1.305231
v 9.544737 8.796287 1.305231
v 10.593573 10.082417 1.305231
v 10.816223 9.815817 1.305231
v 11.633623 7.196676 1.305231
v 9.266413 9.121481 1.305231
v 10.356272 10.331442 1.305231
v 10.113072 10.562887 1.305231
v 11.132622 6.018941 1.305231
v 10.930472 5.796285 1.305231
v 9.632622 7.431051 1.305231
v 8.513487 9.508202 1.305231
v 9.207823 11.154667 1.305231
v 9.565243 10.964266 1.305231
v 8.826962 11.318767 1.305231
v 9.407038 7.205466 1.305231
v 8.325987 9.558002 1.305231
v 8.033017 9.607806 1.305231
v 8.548642 11.418366 1.305231
v 7.687312 9.625386 1.305231
v 8.000788 11.535566 1.305231
v 8.220517 11.500366 1.305231
v 7.414852 9.622457 1.305231
v 7.722467 11.556067 1.305231
v 7.253717 11.570717 1.305231
v 6.764462 11.567766 1.305231
v 10.675572 5.556051 1.305231
v 4.827938 11.093166 1.305231
v 10.291822 5.263082 1.305231
v 8.967587 6.900776 1.305231
v 9.348448 4.773827 1.305231
v 8.384578 6.622457 1.305231
v 3.407038 10.349022 1.305231
v 4.684383 8.684957 1.305231
v 4.230282 8.374412 1.305231
v 3.790827 8.028707 1.305231
v 2.566217 9.733787 1.305231
v 6.764462 4.117577 1.305230
v 6.556452 4.085346 1.305230
v 3.377742 7.650776 1.305231
v 1.798642 9.016011 1.305231
v 5.642392 4.009176 1.305230
v 4.795712 3.976952 1.305230
v 5.668757 6.018941 1.305231
v 1.274227 8.421287 1.305231
v 2.958797 7.202537 1.305231
v 2.718563 6.903707 1.305231
v 4.482235 5.939840 1.305231
v 3.928523 3.965231 1.305230
v 0.823057 7.803122 1.305231
v 2.434382 6.516986 1.305231
v 0.582822 7.436912 1.305231
v 2.211727 6.183004 1.305231
v 0.363092 7.047261 1.305231
v 3.538877 5.928121 1.305231
v 2.120908 6.018941 1.305231
v 2.120908 5.995504 1.305231
v 0.005672 6.332417 1.305231
v 2.504698 3.991596 1.305230
v 2.179502 5.960348 1.305231
v -0.674027 4.586327 1.305231
v 1.485162 3.244526 1.305230
v 0.749812 2.597066 1.305230
v -0.990427 3.490622 1.305230
v -1.201377 2.611717 1.305230
v 0.008603 1.864646 1.305230
v -0.524578 1.287497 1.305230
v -1.125177 1.149802 1.305230
v -1.485528 1.228901 1.305230
v -1.526577 0.979877 1.305230
v -1.306828 0.950582 1.305230
v -1.444528 0.812887 1.305230
v -1.218927 0.502317 1.305230
v -1.224778 0.502317 1.305230
v -1.233578 0.531617 1.305230
v -0.890828 0.859762 1.305230
v -1.157427 0.889057 1.305230
v -1.183777 0.730856 1.305230
v 6.322077 4.056051 1.305230
v 3.084773 7.346091 1.305231
v 1.042783 8.110737 1.305231
v 8.774227 4.568747 1.305231
v 8.885557 9.364647 1.305231
v 9.796673 10.817766 1.305231
v 11.018373 9.546287 1.305231
v 11.413872 8.854877 1.305231
v 9.752722 8.321676 1.305231
v 9.711722 7.565816 1.305231
v 11.422672 6.496481 1.305231
v 9.852373 5.005271 1.305231
v 5.627742 9.183002 2.805231
v 6.105282 9.364647 2.805231
v 5.302547 11.268917 2.805231
v -1.538278 0.812887 2.805230
v -1.526577 0.754292 2.805230
v -1.514828 0.754292 2.805230
v 7.452937 6.314841 2.805231
v 6.749812 6.165426 2.805231
v 7.385557 4.228901 2.805231
v 2.000787 3.645896 2.805231
v 2.141412 5.974996 2.805231
v -0.301942 5.611715 2.805231
v 7.860163 6.432026 2.805231
v 8.123837 4.390037 2.805231
v 5.153132 8.957417 2.805231
v 4.435360 10.920317 2.805231
v 4.075007 10.744516 2.805231
v 5.812313 11.415417 2.805231
v 6.459773 9.467181 2.805231
v 6.556452 11.561916 2.805231
v 6.433407 11.550167 2.805231
v 7.069147 9.604877 2.805231
v 11.639473 7.967181 2.805231
v 11.507622 8.597067 2.805231
v 9.799623 8.119526 2.805231
v 9.817173 7.905662 2.805231
v 9.776173 7.715231 2.805231
v 9.697073 8.494526 2.805231
v 11.334772 9.027731 2.805231
v 11.194172 9.279681 2.805231
v 10.816223 9.815817 2.805231
v 10.593573 10.082417 2.805231
v 9.544737 8.796287 2.805231
v 11.633623 7.196676 2.805231
v 9.266413 9.121481 2.805231
v 10.113072 10.562887 2.805231
v 10.356272 10.331442 2.805231
v 9.632622 7.431051 2.805231
v 10.930472 5.796285 2.805231
v 11.132622 6.018941 2.805231
v 9.565243 10.964266 2.805231
v 9.207823 11.154667 2.805231
v 8.513487 9.508202 2.805231
v 8.826962 11.318767 2.805231
v 9.407038 7.205466 2.805231
v 8.548642 11.418366 2.805231
v 8.033017 9.607806 2.805231
v 8.325987 9.558002 2.805231
v 8.000788 11.535566 2.805231
v 7.687312 9.625386 2.805231
v 8.220517 11.500366 2.805231
v 7.722467 11.556067 2.805231
v 7.414852 9.622457 2.805231
v 7.253717 11.570717 2.805231
v 6.764462 11.567766 2.805231
v 10.675572 5.556051 2.805231
v 4.827938 11.093166 2.805231
v 8.967587 6.900776 2.805231
v 10.291822 5.263082 2.805231
v 8.384578 6.622457 2.805231
v 9.348448 4.773827 2.805231
v 4.684383 8.684957 2.805231
v 3.407038 10.349022 2.805231
v 4.230282 8.374412 2.805231
v 2.566217 9.733787 2.805231
v 3.790827 8.028707 2.805231
v 6.556452 4.085346 2.805231
v 6.764462 4.117577 2.805231
v 1.798642 9.016011 2.805231
v 3.377742 7.650776 2.805231
v 5.668757 6.018941 2.805231
v 4.795712 3.976952 2.805231
v 5.642392 4.009176 2.805231
v 2.718563 6.903707 2.805231
v 2.958797 7.202537 2.805231
v 1.274227 8.421287 2.805231
v 3.928523 3.965231 2.805231
v 4.482235 5.939840 2.805231
v 0.582822 7.436912 2.805231
v 2.434382 6.516986 2.805231
v 0.823057 7.803122 2.805231
v 2.211727 6.183004 2.805231
v 0.363092 7.047261 2.805231
v 3.538877 5.928121 2.805231
v 2.120908 6.018941 2.805231
v 0.005672 6.332417 2.805231
v 2.120908 5.995504 2.805231
v 2.504698 3.991596 2.805231
v 2.179502 5.960348 2.805231
v -0.674027 4.586327 2.805231
v 1.485162 3.244526 2.805231
v 0.749812 2.597066 2.805230
v -0.990427 3.490622 2.805231
v -1.201377 2.611717 2.805230
v 0.008603 1.864646 2.805230
v -0.524578 1.287497 2.805230
v -1.485528 1.228901 2.805230
v -1.125177 1.149802 2.805230
v -1.306828 0.950582 2.805230
v -1.526577 0.979877 2.805230
v -1.444528 0.812887 2.805230
v -1.233578 0.531617 2.805230
v -1.224778 0.502316 2.805230
v -1.218927 0.502316 2.805230
v -1.157427 0.889057 2.805230
v -0.890828 0.859762 2.805230
v -1.183777 0.730856 2.805230
v 6.322077 4.056051 2.805231
v 3.084773 7.346091 2.805231
v 1.042783 8.110737 2.805231
v 8.774227 4.568747 2.805231
v 8.885557 9.364647 2.805231
v 9.796673 10.817766 2.805231
v 11.018373 9.546287 2.805231
v 9.752722 8.321676 2.805231
v 11.413872 8.854877 2.805231
v 9.711722 7.565816 2.805231
v 11.422672 6.496481 2.805231
v 9.852373 5.005271 2.805231
vn 0.000000 0.000000 -1.000000
vn 0.000000 0.000000 1.000000
vn 0.736700 -0.676200 -0.000000
vn 0.759600 -0.650400 0.000000
vn 0.734500 -0.678600 0.000000
vn 0.702900 -0.711300 0.000000
vn 0.660800 -0.750500 0.000000
vn 0.614300 -0.789100 0.000000
vn 0.565700 -0.824600 0.000000
vn -0.018500 -0.999800 0.000000
vn 0.013500 -0.999900 0.000000
vn 0.038000 -0.999300 0.000000
vn 0.068800 -0.997600 0.000000
vn 0.124000 -0.992300 0.000000
vn 0.153100 -0.988200 0.000000
vn 0.176400 -0.984300 0.000000
vn 0.213200 -0.977000 0.000000
vn 0.265000 -0.964300 0.000000
vn 0.336300 -0.941700 0.000000
vn 0.417400 -0.908700 0.000000
vn 0.506000 -0.862500 0.000000
vn 0.606800 -0.794800 0.000000
vn 0.685900 -0.727700 0.000000
vn 0.740400 -0.672200 0.000000
vn 0.854700 -0.519100 0.000000
vn 0.957500 -0.288500 0.000000
vn 1.000000 -0.007600 0.000000
vn 0.978800 0.204900 0.000000
vn 0.939800 0.341700 0.000000
vn 0.909300 0.416100 0.000000
vn 0.873200 0.487300 0.000000
vn 0.834800 0.550500 0.000000
vn 0.800000 0.600000 0.000000
vn 0.767500 0.641000 0.000000
vn 0.723900 0.689900 0.000000
vn 0.689400 0.724400 0.000000
vn 0.627300 0.778800 0.000000
vn 0.534900 0.844900 0.000000
vn 0.470200 0.882600 0.000000
vn 0.395700 0.918400 0.000000
vn 0.336900 0.941500 0.000000
vn 0.242400 0.970200 0.000000
vn 0.158200 0.987400 0.000000
vn 0.073500 0.997300 0.000000
vn 0.031200 0.999500 0.000000
vn -0.006000 1.000000 0.000000
vn -0.028100 0.999600 0.000000
vn -0.095100 0.995500 0.000000
vn -0.212000 0.977300 0.000000
vn -0.276200 0.961100 0.000000
vn -0.347300 0.937800 0.000000
vn -0.403000 0.915200 0.000000
vn -0.438500 0.898800 0.000000
vn -0.438500 0.898700 0.000000
vn -0.509500 0.860500 0.000000
vn -0.590500 0.807000 0.000000
vn -0.683000 0.730400 0.000000
vn -0.750100 0.661400 0.000000
vn -0.801800 0.597600 0.000000
vn -0.813700 0.581200 0.000000
vn -0.836100 0.548500 0.000000
vn -0.871000 0.491200 0.000000
vn -0.894400 0.447200 0.000000
vn -0.919700 0.392600 0.000000
vn -0.940000 0.341100 0.000000
vn -0.960700 0.277400 0.000000
vn -0.972400 0.233400 0.000000
vn -0.979500 0.201300 0.000000
vn -0.986700 0.162600 0.000000
vn -0.997600 0.069900 0.000000
vn -0.980600 -0.195800 -0.000000
vn 0.000000 -1.000000 -0.000000
vn 0.640300 -0.768200 -0.000000
vn 0.707100 -0.707100 -0.000000
vn 0.738900 -0.673800 0.000000
vn -0.992400 0.122700 0.000000
vn -0.986400 0.164300 0.000000
vn -0.970200 0.242500 0.000000
vn -0.957700 -0.287600 -0.000000
vn 0.023700 0.999700 0.000000
vn 0.358900 0.933400 0.000000
vn 0.707200 0.707100 0.000000
vn 1.000000 0.000000 0.000000
vn 0.874900 -0.484300 0.000000
vn 0.832000 -0.554700 0.000000
vn 0.832100 -0.554700 0.000000
vn 0.805800 -0.592200 0.000000
vn 0.779400 -0.626600 0.000000
vn 0.751600 -0.659600 0.000000
vn 0.720800 -0.693100 0.000000
vn 0.675000 -0.737800 0.000000
vn 0.618300 -0.786000 0.000000
vn 0.564500 -0.825400 0.000000
vn 0.502500 -0.864600 0.000000
vn 0.429300 -0.903200 0.000000
vn 0.355500 -0.934700 0.000000
vn 0.277900 -0.960600 0.000000
vn 0.220400 -0.975400 0.000000
vn 0.050800 -0.998700 0.000000
vn 0.010800 -0.999900 0.000000
vn -0.050800 -0.998700 0.000000
vn -0.167600 -0.985900 0.000000
vn -0.256700 -0.966500 0.000000
vn -0.360000 -0.933000 0.000000
vn -0.538100 -0.842900 0.000000
vn -0.759700 -0.650200 0.000000
vn -0.892700 -0.450700 0.000000
vn -0.951900 -0.306500 0.000000
vn -0.974100 -0.226000 0.000000
vn -0.996600 -0.081800 0.000000
vn -0.977600 0.210500 0.000000
vn -0.918200 0.396100 0.000000
vn -0.862400 0.506200 0.000000
vn -0.707100 0.707100 0.000000
vn -0.569800 0.821800 0.000000
vn -0.430800 0.902400 0.000000
vn -0.341300 0.939900 0.000000
vn -0.276500 0.961000 0.000000
vn -0.207900 0.978200 0.000000
vn -0.134300 0.990900 0.000000
vn -0.066500 0.997800 0.000000
vn -0.012400 0.999900 0.000000
usemtl None
s off
f 1//1 2//1 3//1
f 4//1 5//1 6//1
f 7//1 8//1 9//1
f 10//1 11//1 12//1
f 13//1 9//1 14//1
f 15//1 16//1 17//1
f 18//1 2//1 19//1
f 20//1 21//1 22//1
f 23//1 24//1 25//1
f 25//1 26//1 27//1
f 28//1 29//1 30//1
f 31//1 32//1 33//1
f 34//1 26//1 25//1
f 32//1 31//1 35//1
f 36//1 35//1 37//1
f 38//1 39//1 40//1
f 41//1 42//1 43//1
f 41//1 44//1 42//1
f 40//1 39//1 45//1
f 46//1 47//1 48//1
f 49//1 50//1 47//1
f 47//1 50//1 51//1
f 49//1 52//1 53//1
f 52//1 20//1 54//1
f 20//1 22//1 55//1
f 20//1 18//1 21//1
f 20//1 55//1 54//1
f 39//1 56//1 45//1
f 1//1 3//1 57//1
f 45//1 58//1 59//1
f 3//1 17//1 16//1
f 57//1 3//1 16//1
f 59//1 60//1 61//1
f 62//1 15//1 63//1
f 64//1 62//1 63//1
f 65//1 66//1 64//1
f 67//1 68//1 8//1
f 65//1 69//1 70//1
f 71//1 72//1 73//1
f 74//1 75//1 76//1
f 77//1 72//1 78//1
f 79//1 80//1 81//1
f 81//1 80//1 82//1
f 83//1 81//1 82//1
f 84//1 77//1 78//1
f 82//1 85//1 83//1
f 85//1 86//1 87//1
f 87//1 86//1 10//1
f 11//1 88//1 12//1
f 11//1 89//1 88//1
f 12//1 90//1 10//1
f 12//1 91//1 90//1
f 90//1 91//1 92//1
f 93//1 90//1 92//1
f 94//1 93//1 92//1
f 95//1 94//1 92//1
f 95//1 96//1 94//1
f 94//1 97//1 98//1
f 94//1 96//1 97//1
f 99//1 98//1 100//1
f 6//1 101//1 4//1
f 102//1 103//1 104//1
f 97//1 105//1 106//1
f 99//1 101//1 6//1
f 99//1 100//1 101//1
f 97//1 96//1 105//1
f 98//1 97//1 100//1
f 106//1 105//1 107//1
f 104//1 107//1 102//1
f 107//1 105//1 102//1
f 73//1 68//1 108//1
f 70//1 109//1 74//1
f 88//1 84//1 78//1
f 69//1 109//1 70//1
f 88//1 89//1 84//1
f 80//1 79//1 76//1
f 86//1 11//1 10//1
f 85//1 87//1 83//1
f 76//1 79//1 110//1
f 74//1 76//1 110//1
f 109//1 75//1 74//1
f 65//1 70//1 66//1
f 64//1 66//1 62//1
f 63//1 15//1 17//1
f 19//1 2//1 1//1
f 14//1 61//1 111//1
f 18//1 19//1 21//1
f 53//1 52//1 54//1
f 50//1 49//1 53//1
f 48//1 47//1 51//1
f 44//1 46//1 48//1
f 44//1 41//1 46//1
f 43//1 112//1 41//1
f 112//1 113//1 37//1
f 43//1 113//1 112//1
f 35//1 112//1 37//1
f 32//1 35//1 36//1
f 30//1 31//1 114//1
f 31//1 33//1 114//1
f 28//1 30//1 114//1
f 115//1 116//1 29//1
f 116//1 30//1 29//1
f 24//1 23//1 116//1
f 24//1 116//1 115//1
f 25//1 27//1 23//1
f 26//1 34//1 117//1
f 40//1 117//1 118//1
f 117//1 34//1 118//1
f 38//1 40//1 118//1
f 45//1 56//1 58//1
f 59//1 58//1 119//1
f 119//1 60//1 59//1
f 111//1 61//1 60//1
f 13//1 14//1 111//1
f 7//1 9//1 13//1
f 67//1 8//1 7//1
f 68//1 73//1 8//1
f 108//1 71//1 73//1
f 73//1 72//1 77//1
f 120//2 121//2 122//2
f 123//2 124//2 125//2
f 126//2 127//2 128//2
f 129//2 130//2 131//2
f 132//2 126//2 133//2
f 134//2 135//2 136//2
f 137//2 121//2 138//2
f 139//2 140//2 141//2
f 142//2 143//2 144//2
f 145//2 146//2 142//2
f 147//2 148//2 149//2
f 150//2 151//2 152//2
f 142//2 146//2 153//2
f 154//2 152//2 151//2
f 155//2 154//2 156//2
f 157//2 158//2 159//2
f 160//2 161//2 162//2
f 161//2 163//2 162//2
f 164//2 158//2 157//2
f 165//2 166//2 167//2
f 166//2 168//2 169//2
f 170//2 168//2 166//2
f 171//2 172//2 169//2
f 173//2 141//2 172//2
f 174//2 139//2 141//2
f 140//2 138//2 141//2
f 173//2 174//2 141//2
f 164//2 175//2 158//2
f 176//2 120//2 122//2
f 177//2 178//2 164//2
f 135//2 134//2 120//2
f 135//2 120//2 176//2
f 179//2 180//2 177//2
f 181//2 136//2 182//2
f 181//2 182//2 183//2
f 183//2 184//2 185//2
f 127//2 186//2 187//2
f 188//2 189//2 185//2
f 190//2 191//2 192//2
f 193//2 194//2 195//2
f 196//2 191//2 197//2
f 198//2 199//2 200//2
f 201//2 199//2 198//2
f 201//2 198//2 202//2
f 196//2 197//2 203//2
f 202//2 204//2 201//2
f 205//2 206//2 204//2
f 131//2 206//2 205//2
f 129//2 207//2 130//2
f 207//2 208//2 130//2
f 131//2 209//2 129//2
f 209//2 210//2 129//2
f 211//2 210//2 209//2
f 211//2 209//2 212//2
f 211//2 212//2 213//2
f 211//2 213//2 214//2
f 213//2 215//2 214//2
f 216//2 217//2 213//2
f 217//2 215//2 213//2
f 218//2 216//2 219//2
f 125//2 220//2 123//2
f 221//2 222//2 223//2
f 224//2 225//2 217//2
f 123//2 220//2 219//2
f 220//2 218//2 219//2
f 225//2 215//2 217//2
f 218//2 217//2 216//2
f 226//2 225//2 224//2
f 223//2 226//2 221//2
f 223//2 225//2 226//2
f 227//2 186//2 190//2
f 195//2 228//2 188//2
f 196//2 203//2 207//2
f 188//2 228//2 189//2
f 203//2 208//2 207//2
f 193//2 200//2 199//2
f 131//2 130//2 206//2
f 202//2 205//2 204//2
f 229//2 200//2 193//2
f 229//2 193//2 195//2
f 195//2 194//2 228//2
f 184//2 188//2 185//2
f 182//2 184//2 183//2
f 134//2 136//2 181//2
f 122//2 121//2 137//2
f 230//2 179//2 132//2
f 140//2 137//2 138//2
f 173//2 172//2 171//2
f 171//2 169//2 168//2
f 170//2 166//2 165//2
f 165//2 167//2 163//2
f 167//2 162//2 163//2
f 162//2 231//2 160//2
f 155//2 232//2 231//2
f 231//2 232//2 160//2
f 155//2 231//2 154//2
f 156//2 154//2 151//2
f 233//2 152//2 147//2
f 233//2 150//2 152//2
f 233//2 147//2 149//2
f 148//2 234//2 235//2
f 148//2 147//2 234//2
f 234//2 144//2 143//2
f 235//2 234//2 143//2
f 144//2 145//2 142//2
f 236//2 153//2 146//2
f 237//2 236//2 157//2
f 237//2 153//2 236//2
f 237//2 157//2 159//2
f 178//2 175//2 164//2
f 238//2 178//2 177//2
f 177//2 180//2 238//2
f 180//2 179//2 230//2
f 230//2 132//2 133//2
f 133//2 126//2 128//2
f 128//2 127//2 187//2
f 127//2 190//2 186//2
f 190//2 192//2 227//2
f 197//2 191//2 190//2
f 105//3 223//3 102//3
f 105//3 225//3 223//3
f 96//4 225//4 105//4
f 96//4 215//4 225//4
f 95//5 215//5 96//5
f 95//5 214//5 215//5
f 92//6 214//6 95//6
f 92//6 211//6 214//6
f 91//7 211//7 92//7
f 91//7 210//7 211//7
f 12//8 210//8 91//8
f 12//8 129//8 210//8
f 88//9 129//9 12//9
f 88//9 207//9 129//9
f 78//10 207//10 88//10
f 78//10 196//10 207//10
f 72//11 196//11 78//11
f 72//11 191//11 196//11
f 71//12 191//12 72//12
f 71//12 192//12 191//12
f 108//13 192//13 71//13
f 108//13 227//13 192//13
f 68//14 227//14 108//14
f 68//14 186//14 227//14
f 67//15 186//15 68//15
f 67//15 187//15 186//15
f 7//16 187//16 67//16
f 7//16 128//16 187//16
f 13//17 128//17 7//17
f 13//17 133//17 128//17
f 111//18 133//18 13//18
f 111//18 230//18 133//18
f 60//19 230//19 111//19
f 60//19 180//19 230//19
f 119//20 180//20 60//20
f 119//20 238//20 180//20
f 58//21 238//21 119//21
f 58//21 178//21 238//21
f 56//22 178//22 58//22
f 56//22 175//22 178//22
f 39//23 175//23 56//23
f 39//23 158//23 175//23
f 38//24 158//24 39//24
f 38//24 159//24 158//24
f 118//25 159//25 38//25
f 118//25 237//25 159//25
f 34//26 237//26 118//26
f 34//26 153//26 237//26
f 25//27 153//27 34//27
f 25//27 142//27 153//27
f 24//28 142//28 25//28
f 24//28 143//28 142//28
f 115//29 143//29 24//29
f 115//29 235//29 143//29
f 29//30 235//30 115//30
f 29//30 148//30 235//30
f 28//31 148//31 29//31
f 28//31 149//31 148//31
f 114//32 149//32 28//32
f 114//32 233//32 149//32
f 33//33 233//33 114//33
f 33//33 150//33 233//33
f 32//34 150//34 33//34
f 32//34 151//34 150//34
f 36//35 151//35 32//35
f 36//35 156//35 151//35
f 37//36 156//36 36//36
f 37//36 155//36 156//36
f 113//37 155//37 37//37
f 113//37 232//37 155//37
f 43//38 232//38 113//38
f 43//38 160//38 232//38
f 42//39 160//39 43//39
f 42//39 161//39 160//39
f 44//40 161//40 42//40
f 44//40 163//40 161//40
f 48//41 163//41 44//41
f 48//41 165//41 163//41
f 51//42 165//42 48//42
f 51//42 170//42 165//42
f 50//43 170//43 51//43
f 50//43 168//43 170//43
f 53//44 168//44 50//44
f 53//44 171//44 168//44
f 54//45 171//45 53//45
f 54//45 173//45 171//45
f 55//46 173//46 54//46
f 55//46 174//46 173//46
f 22//47 174//47 55//47
f 22//47 139//47 174//47
f 21//48 139//48 22//48
f 21//48 140//48 139//48
f 19//49 140//49 21//49
f 19//49 137//49 140//49
f 1//50 137//50 19//50
f 1//50 122//50 137//50
f 57//51 122//51 1//51
f 57//51 176//51 122//51
f 16//52 176//52 57//52
f 16//52 135//52 176//52
f 15//53 135//53 16//53
f 15//54 136//54 135//54
f 62//55 136//55 15//55
f 62//55 182//55 136//55
f 66//56 182//56 62//56
f 66//56 184//56 182//56
f 70//57 184//57 66//57
f 70//57 188//57 184//57
f 74//58 188//58 70//58
f 74//58 195//58 188//58
f 110//59 195//59 74//59
f 110//59 229//59 195//59
f 79//60 229//60 110//60
f 79//60 200//60 229//60
f 81//61 200//61 79//61
f 81//61 198//61 200//61
f 83//62 198//62 81//62
f 83//62 202//62 198//62
f 87//63 202//63 83//63
f 87//63 205//63 202//63
f 10//64 205//64 87//64
f 10//64 131//64 205//64
f 90//65 131//65 10//65
f 90//65 209//65 131//65
f 93//66 209//66 90//66
f 93//66 212//66 209//66
f 94//67 212//67 93//67
f 94//67 213//67 212//67
f 98//68 213//68 94//68
f 98//68 216//68 213//68
f 99//69 216//69 98//69
f 99//69 219//69 216//69
f 6//70 219//70 99//70
f 6//70 123//70 219//70
f 5//71 123//71 6//71
f 5//71 124//71 123//71
f 4//72 124//72 5//72
f 4//72 125//72 124//72
f 101//73 125//73 4//73
f 101//73 220//73 125//73
f 100//74 220//74 101//74
f 100//74 218//74 220//74
f 97//75 218//75 100//75
f 97//75 217//75 218//75
f 106//76 217//76 97//76
f 106//76 224//76 217//76
f 107//77 224//77 106//77
f 107//77 226//77 224//77
f 104//78 226//78 107//78
f 104//78 221//78 226//78
f 103//79 221//79 104//79
f 103//79 222//79 221//79
f 102//72 222//72 103//72
f 102//72 223//72 222//72
f 89//80 208//80 84//80
f 203//80 84//80 208//80
f 11//81 130//81 89//81
f 208//81 89//81 130//81
f 86//82 206//82 11//82
f 130//82 11//82 206//82
f 85//83 204//83 86//83
f 206//83 86//83 204//83
f 82//84 201//84 85//84
f 204//84 85//84 201//84
f 80//85 199//85 82//85
f 201//86 82//86 199//86
f 76//87 193//87 80//87
f 199//87 80//87 193//87
f 75//88 194//88 76//88
f 193//88 76//88 194//88
f 109//89 228//89 75//89
f 194//89 75//89 228//89
f 69//90 189//90 109//90
f 228//90 109//90 189//90
f 65//91 185//91 69//91
f 189//91 69//91 185//91
f 64//92 183//92 65//92
f 185//92 65//92 183//92
f 63//93 181//93 64//93
f 183//93 64//93 181//93
f 17//94 134//94 63//94
f 181//94 63//94 134//94
f 3//95 120//95 17//95
f 134//95 17//95 120//95
f 2//96 121//96 3//96
f 120//96 3//96 121//96
f 18//97 138//97 2//97
f 121//97 2//97 138//97
f 20//98 141//98 18//98
f 138//98 18//98 141//98
f 52//99 172//99 20//99
f 141//99 20//99 172//99
f 49//100 169//100 52//100
f 172//100 52//100 169//100
f 47//101 166//101 49//101
f 169//101 49//101 166//101
f 46//102 167//102 47//102
f 166//102 47//102 167//102
f 41//103 162//103 46//103
f 167//103 46//103 162//103
f 112//104 231//104 41//104
f 162//104 41//104 231//104
f 35//105 154//105 112//105
f 231//105 112//105 154//105
f 31//106 152//106 35//106
f 154//106 35//106 152//106
f 30//107 147//107 31//107
f 152//107 31//107 147//107
f 116//108 234//108 30//108
f 147//108 30//108 234//108
f 23//109 144//109 116//109
f 234//109 116//109 144//109
f 27//110 145//110 23//110
f 144//110 23//110 145//110
f 26//111 146//111 27//111
f 145//111 27//111 146//111
f 117//112 236//112 26//112
f 146//112 26//112 236//112
f 40//113 157//113 117//113
f 236//113 117//113 157//113
f 45//114 164//114 40//114
f 157//114 40//114 164//114
f 59//115 177//115 45//115
f 164//115 45//115 177//115
f 61//116 179//116 59//116
f 177//116 59//116 179//116
f 14//117 132//117 61//117
f 179//117 61//117 132//117
f 9//118 126//118 14//118
f 132//118 14//118 126//118
f 8//119 127//119 9//119
f 126//119 9//119 127//119
f 73//120 190//120 8//120
f 127//120 8//120 190//120
f 77//121 197//121 73//121
f 190//121 73//121 197//121
f 84//122 203//122 77//122
f 197//122 77//122 203//122
